# xmcd
#
# Track frame offsets:
#	150
#	10045
#	20687
#	30485
#	42127
#	57345
#	70220
#	85537
#	98465
#	111417
#
# Disc length: 1667 seconds
#
# Revision: 1
# Processed by: cddbd v1.5.2PL0 Copyright (c) Steve Scherf et al.
# Submitted via: audiograbber 1.83.01
#
DISCID=6f06810a
DTITLE=Hawkin County Grass - Gone Home
DYEAR=1997
DGENRE=Bluegrass
TTITLE0=Three Men On A Mountain
TTITLE1=Gone Home
TTITLE2=Lean On Me
TTITLE3=You Can Feel It In Your Soul
TTITLE4=White Dove
TTITLE5=Working On A Road
TTITLE6=The lowest Valley
TTITLE7=Crying Holy Unto The Lord
TTITLE8=I'm So Glad He Found me
TTITLE9=That Same Spirit
EXTD=
EXTT0=
EXTT1=
EXTT2=
EXTT3=
EXTT4=
EXTT5=
EXTT6=
EXTT7=
EXTT8=
EXTT9=
PLAYORDER=
